<?xml version="1.0" standalone="no"?>
<!DOCTYPE svg PUBLIC "-//W3C//DTD SVG 20010904//EN"
 "http://www.w3.org/TR/2001/REC-SVG-20010904/DTD/svg10.dtd">
<svg version="1.0" xmlns="http://www.w3.org/2000/svg"
 width="400.000000pt" height="400.000000pt" viewBox="0 0 400.000000 400.000000"
 preserveAspectRatio="xMidYMid meet">
<metadata>
Created by potrace 1.15, written by Peter Selinger 2001-2017
</metadata>
<g transform="translate(0.000000,400.000000) scale(0.100000,-0.100000)"
fill="#000000" stroke="none">
<path d="M1945 3953 c-11 -3 -263 -146 -560 -318 -297 -171 -648 -374 -780
-450 -244 -140 -286 -169 -311 -217 -19 -37 -21 -1747 -2 -1811 7 -22 26 -54
44 -71 17 -17 386 -236 820 -486 l789 -455 60 0 60 1 545 315 c300 174 653
378 785 454 244 140 286 169 311 217 19 37 21 1747 2 1811 -7 22 -26 54 -44
71 -17 17 -386 235 -819 485 -688 397 -794 455 -834 457 -25 1 -55 0 -66 -3z
m671 -1274 c43 -6 108 -20 144 -32 l67 -22 -33 -119 c-18 -65 -34 -119 -36
-121 -2 -2 -36 8 -76 21 -148 50 -315 40 -372 -21 -35 -38 -35 -112 0 -150 29
-31 95 -67 190 -102 233 -88 343 -189 371 -344 31 -176 -49 -337 -208 -418
-102 -51 -172 -65 -328 -65 -147 0 -231 14 -324 55 l-48 20 29 122 c16 66 30
122 31 124 2 1 30 -9 64 -22 182 -74 375 -71 448 5 26 27 30 39 30 85 0 46 -4
58 -30 85 -35 37 -87 65 -201 109 -275 106 -394 278 -340 489 58 228 302 346
622 301z m-906 -476 c-1 -506 -6 -574 -53 -677 -54 -118 -162 -194 -308 -217
-79 -12 -220 -7 -293 12 -42 10 -44 12 -39 42 2 18 10 70 17 117 13 96 1 88
117 74 119 -14 186 15 232 100 22 40 22 48 25 529 l3 487 149 0 150 0 0 -467z"/>
</g>
</svg>
